<?xml version="1.0" encoding="utf-8"?>
<!-- Generator: Adobe Illustrator 25.0.1, SVG Export Plug-In . SVG Version: 6.00 Build 0)  -->
<svg version="1.1" id="Layer_1" xmlns="http://www.w3.org/2000/svg" xmlns:xlink="http://www.w3.org/1999/xlink" x="0px" y="0px"
	 viewBox="0 0 792 243.6" style="enable-background:new 0 0 792 243.6;" xml:space="preserve">
<g>
	<g>
		<path d="M491.2,101.16c0.34-0.08,87.76,39.1,87.51,39.13c-60.92-19.52-110.87-26.49-149.84-20.78
			C428.51,119.56,456.3,109.8,491.2,101.16z"/>
		<g>
			<path d="M629.66,87.09c-39.49,14.75-52.67,22.17-78.26,36.17l-25.96-11.43C559.12,101.57,608.14,90.16,629.66,87.09z"/>
			<path d="M491.19,124.14c0.35-0.13,9.87,1.18,18.65,2.73c-26.74,13.75-39.23,32.21-39.23,32.21l-28.01-0.35
				C452.82,147.02,468.63,132.7,491.19,124.14z"/>
			<path d="M521.59,129.35c0.14,0.11,9.71,2.07,16.88,3.67c-7.33,6.1-16.73,10.42-24.65,27.26c-0.05,0.11-18.29-0.52-28.82-0.88
				C492.62,148.96,504.63,136.43,521.59,129.35z"/>
		</g>
	</g>
	<g>
		<path d="M367.57,99.04h16.39v26.19h6.46c6.41-0.5,9.78-6.77,9.59-13.33h16.19c0.1,11.57-2.99,16.95-11.81,20.15
			c3.57,1.16,12.28,4.74,12.28,17.79v8.87h-16.31v-9.37c0-4.24-4.16-10.78-11.56-10.48h-4.83v19.85h-16.39V99.04z"/>
		<path d="M250.16,98.47h16.36v46.62h11.56c3.74-0.1,8.98-3.34,8.98-9.91c0-5.41-4.25-9.75-9.23-9.75h-7.82
			c-0.08,0-0.08-13.65,0-13.65h11.01c11.55,0,22.52,9.51,22.52,23.91c0,14.37-13.81,23.06-25.55,23.06h-27.85V98.47z"/>
		<path d="M307.37,135.75c0-13.6,10.17-24.65,28-24.65c17.97,0,28,11.05,28,24.65c0,13.59-10.62,24.62-28,24.62
			C318.71,160.38,307.37,149.34,307.37,135.75z M335.37,147.32c6.49,0,11.75-5.21,11.75-11.68c0-6.4-5.27-11.59-11.75-11.59
			c-6.51,0-11.78,5.19-11.78,11.59C323.58,142.11,328.86,147.32,335.37,147.32z"/>
		<path d="M171.49,125.4l-9.87,16.36h15.92l10.17-15.87v-14.05l-29.51,0.02c-12.94,0-23.44,10.49-23.44,23.47
			c0,12.95,10.5,23.46,23.44,23.46h29.58v-13.59H160.6c-5.47,0-9.92-4.43-9.92-9.9c0-5.47,4.45-9.91,9.92-9.91H171.49z"/>
		<path d="M227.68,125.4l-9.85,16.36l15.86-0.01l10.18-15.85v-14.05l-29.49,0.02c-12.94,0-23.46,10.49-23.46,23.47
			c0,12.95,10.52,23.46,23.46,23.46h29.59v-13.59h-27.21c-5.45,0-9.9-4.43-9.9-9.9c0-5.47,4.45-9.91,9.9-9.91H227.68z"/>
		<path d="M119.93,138.61c-0.03,0.09,0.07,0.12,0.07,0.12c4.04,1.88,10.8,6.72,10.8,14.7v18.18l-16.66-0.08l0.05-13.93
			c-0.08-8.76-4.21-12.08-12.08-12.39c-0.32-0.02-9.6-0.02-9.6-0.02v-13.43l13.99,0.02c5.44,0,10-3.95,10-9.75
			c0-6.9-4.7-9.86-10.17-9.86c0,0-15.06,0.05-18.42,0.05v46.51H72V98.1h37.53c11.09,0,23.76,7.61,23.76,20.99
			c0,8.87-4.73,16.37-13.27,19.39L119.93,138.61z"/>
	</g>
</g>
</svg>
