<?xml version="1.0" encoding="utf-8"?>
<!-- Generator: Adobe Illustrator 25.0.1, SVG Export Plug-In . SVG Version: 6.00 Build 0)  -->
<svg version="1.1" id="Layer_1" xmlns="http://www.w3.org/2000/svg" xmlns:xlink="http://www.w3.org/1999/xlink" x="0px" y="0px"
	 viewBox="0 0 1080 1080" style="enable-background:new 0 0 1080 1080;" xml:space="preserve">
<g>
	<path d="M405.38,460.32c1.2-0.3,310.37,138.28,309.5,138.38c-215.46-69.04-392.12-93.68-529.94-73.51
		C183.64,525.38,281.93,490.88,405.38,460.32z"/>
	<g>
		<path d="M895.07,410.55c-139.66,52.17-186.29,78.41-276.77,127.92l-91.81-40.43C645.56,461.77,818.96,421.41,895.07,410.55z"/>
		<path d="M405.32,541.59c1.23-0.47,34.9,4.18,65.96,9.66c-94.56,48.63-138.74,113.9-138.74,113.9l-99.06-1.23
			C269.65,622.48,325.56,571.84,405.32,541.59z"/>
		<path d="M512.86,560.01c0.49,0.39,34.35,7.33,59.7,12.99c-25.94,21.57-59.18,36.86-87.19,96.41c-0.19,0.4-64.68-1.85-101.91-3.13
			C410.38,629.37,452.85,585.04,512.86,560.01z"/>
	</g>
</g>
</svg>
