<?xml version="1.0" encoding="utf-8"?>
<!-- Generator: Adobe Illustrator 25.0.1, SVG Export Plug-In . SVG Version: 6.00 Build 0)  -->
<svg version="1.1" id="Layer_1" xmlns="http://www.w3.org/2000/svg" xmlns:xlink="http://www.w3.org/1999/xlink" x="0px" y="0px"
	 viewBox="0 0 144 87.06" style="enable-background:new 0 0 144 87.06;" xml:space="preserve">
<g>
	<path d="M45.99,28.14c0.23-0.06,59.97,26.72,59.8,26.74C64.16,41.53,30.03,36.77,3.4,40.67C3.14,40.71,22.14,34.04,45.99,28.14z"/>
	<g>
		<path d="M140.61,18.52c-26.98,10.08-35.99,15.15-53.48,24.72l-17.74-7.81C92.4,28.42,125.9,20.62,140.61,18.52z"/>
		<path d="M45.98,43.84c0.24-0.09,6.74,0.81,12.75,1.87c-18.27,9.4-26.81,22.01-26.81,22.01l-19.14-0.24
			C19.76,59.47,30.57,49.68,45.98,43.84z"/>
		<path d="M66.76,47.4c0.09,0.08,6.64,1.42,11.53,2.51c-5.01,4.17-11.43,7.12-16.85,18.63c-0.04,0.08-12.5-0.36-19.69-0.6
			C46.96,60.8,55.16,52.23,66.76,47.4z"/>
	</g>
</g>
</svg>
